<?xml version="1.0" encoding="utf-8"?>
<!-- Generator: Adobe Illustrator 24.2.1, SVG Export Plug-In . SVG Version: 6.00 Build 0)  -->
<svg version="1.1" xmlns="http://www.w3.org/2000/svg" xmlns:xlink="http://www.w3.org/1999/xlink" x="0px" y="0px"
	 viewBox="0 0 500 500" style="enable-background:new 0 0 500 500;" xml:space="preserve">
<style type="text/css">
	.st0{opacity:0.28;}
	.st1{fill:url(#SVGID_1_);}
	.st2{fill:url(#SVGID_2_);}
	.st3{fill:#1AE5FF;}
	.st4{opacity:0.57;}
	.st5{fill:#FFFFFF;}
	.st6{fill:url(#SVGID_3_);}
	.st7{fill:url(#SVGID_4_);}
	.st8{fill:url(#SVGID_5_);}
	.st9{fill:url(#SVGID_6_);}
	.st10{fill:#F9FBFC;}
	.st11{fill:url(#SVGID_7_);}
	.st12{fill:#CFE3FF;}
	.st13{fill:url(#SVGID_8_);}
	.st14{fill:url(#SVGID_9_);}
	.st15{fill:#FF9D6F;}
	.st16{opacity:0.21;fill:url(#SVGID_10_);}
	.st17{fill:#4531BA;}
	.st18{fill:url(#SVGID_11_);}
	.st19{fill:#FF7C40;}
	.st20{fill:url(#SVGID_12_);}
	.st21{fill:url(#SVGID_13_);}
	.st22{fill:#843837;}
	.st23{fill:#CFDAE4;}
	.st24{opacity:0.67;}
	.st25{opacity:0.53;}
	.st26{fill:url(#SVGID_14_);}
	.st27{opacity:0.46;}
	.st28{fill:url(#SVGID_15_);}
	.st29{opacity:0.21;}
	.st30{fill:url(#SVGID_16_);}
	.st31{fill:#5155D4;}
	.st32{fill:#343996;}
	.st33{fill:#FF3D9D;}
</style>
<g id="BACKGROUND">
	<g>
		<g class="st0">
			<linearGradient id="SVGID_1_" gradientUnits="userSpaceOnUse" x1="309.2634" y1="46.2453" x2="500" y2="46.2453">
				<stop  offset="0" style="stop-color:#1AE5FF"/>
				<stop  offset="0.3352" style="stop-color:#64EDFF"/>
				<stop  offset="1" style="stop-color:#FFFFFF"/>
			</linearGradient>
			<path class="st1" d="M366,28c49.48,33.21,85.64,62.28,134,64.49V0H309.26C326.93,5.88,346.24,14.74,366,28z"/>
			<linearGradient id="SVGID_2_" gradientUnits="userSpaceOnUse" x1="184.8199" y1="455.0909" x2="0" y2="455.0909">
				<stop  offset="0" style="stop-color:#1AE5FF"/>
				<stop  offset="0.3352" style="stop-color:#64EDFF"/>
				<stop  offset="1" style="stop-color:#FFFFFF"/>
			</linearGradient>
			<path class="st2" d="M28.1,422.58c-12-0.41-21.15-5.4-28.1-12.4V500h183.87C197.16,437.39,67.2,423.93,28.1,422.58z"/>
		</g>
	</g>
</g>
<g id="OBJECTS">
	<g>
		<g>
			<path class="st3" d="M368.7,358.06c1.47,0.85,2.67,2.92,2.66,4.61c0,1.7-1.21,2.39-2.68,1.54l-24.27-14.01
				c-1.47-0.85-2.67-2.92-2.66-4.62c0-1.69,1.21-2.38,2.68-1.53L368.7,358.06z"/>
		</g>
		<g>
			<g class="st4">
				<path class="st3" d="M71.63,205.04c-1.61,0.93-2.93,3.22-2.92,5.08l0.2,69.03c0.01,4.4,3.14,6.2,6.95,4l41.12-23.74
					c1.61-0.93,2.93-3.22,2.92-5.08l-0.2-69.03c-0.01-4.4-3.14-6.2-6.95-4L71.63,205.04z"/>
			</g>
			<g>
				<g>
					<g>
						<path class="st5" d="M77.94,230.06c-0.48,0.28-0.87,0.95-0.87,1.5l0.01,3.67c0,0.56,0.39,0.78,0.88,0.5l33.53-19.36
							c0.48-0.28,0.87-0.95,0.87-1.51l-0.01-3.67c0-0.55-0.39-0.77-0.88-0.5L77.94,230.06z"/>
					</g>
					<g>
						<path class="st5" d="M77.96,238.04c-0.48,0.28-0.87,0.95-0.87,1.51l0.01,3.67c0,0.56,0.39,0.77,0.88,0.5l33.53-19.36
							c0.48-0.28,0.87-0.95,0.87-1.5l-0.01-3.67c0-0.56-0.39-0.78-0.88-0.5L77.96,238.04z"/>
					</g>
				</g>
				<linearGradient id="SVGID_3_" gradientUnits="userSpaceOnUse" x1="88.9852" y1="243.6459" x2="103.9749" y2="243.6459">
					<stop  offset="0" style="stop-color:#CC68FF"/>
					<stop  offset="1" style="stop-color:#FB8E31"/>
				</linearGradient>
				<path class="st6" d="M91.05,243.98c-1.14,0.66-2.07,2.26-2.06,3.57l0,0.84c0,1.32,0.93,1.84,2.08,1.18l10.84-6.26
					c1.14-0.66,2.07-2.26,2.07-3.58l0-0.84c0-1.31-0.94-1.84-2.08-1.18L91.05,243.98z"/>
			</g>
		</g>
		<g>
			
				<linearGradient id="SVGID_4_" gradientUnits="userSpaceOnUse" x1="113.5126" y1="363.9315" x2="155.6224" y2="50.9792" gradientTransform="matrix(-1 0 0 1 443.1537 0)">
				<stop  offset="0" style="stop-color:#1AE5FF"/>
				<stop  offset="0.2589" style="stop-color:#64E8F9"/>
				<stop  offset="0.7043" style="stop-color:#EAEEEE"/>
			</linearGradient>
			<path class="st7" d="M213.69,90.36c-0.11-0.06-0.22-0.12-0.33-0.18c-0.14-0.08-0.28-0.15-0.42-0.22
				c-0.14-0.07-0.28-0.14-0.42-0.2c-0.14-0.06-0.28-0.12-0.41-0.18c-0.14-0.06-0.28-0.11-0.42-0.16c-0.03-0.01-0.05-0.02-0.08-0.03
				c-0.01,0-0.02-0.01-0.03-0.01c-0.1-0.03-0.2-0.07-0.3-0.1c-0.14-0.04-0.29-0.08-0.43-0.12c-0.14-0.04-0.28-0.07-0.42-0.09
				c-0.15-0.03-0.3-0.05-0.45-0.07c-0.1-0.01-0.2-0.02-0.3-0.03c-0.01,0-0.03,0-0.04,0c-0.04,0-0.07-0.01-0.11-0.01
				c-0.16-0.01-0.33-0.02-0.49-0.02c-0.18,0-0.36,0.01-0.54,0.03c-0.2,0.02-0.4,0.05-0.6,0.09c0,0-0.01,0-0.01,0
				c-0.01,0-0.01,0-0.02,0c-0.24,0.05-0.47,0.11-0.69,0.19c-0.29,0.1-0.57,0.23-0.84,0.39l-6.86,3.99c0.47-0.27,0.98-0.46,1.53-0.58
				c0.01,0,0.01,0,0.02-0.01c0.55-0.11,1.13-0.14,1.74-0.09c0.02,0,0.03,0,0.05,0c0.61,0.06,1.25,0.19,1.91,0.42
				c0.01,0,0.02,0.01,0.03,0.01c0.67,0.23,1.37,0.55,2.09,0.96l187.54,108.56l6.86-3.99L213.69,90.36z"/>
			
				<linearGradient id="SVGID_5_" gradientUnits="userSpaceOnUse" x1="27.5238" y1="280.6981" x2="44.6975" y2="280.6981" gradientTransform="matrix(-1 0 0 1 443.1537 0)">
				<stop  offset="0" style="stop-color:#5155D4"/>
				<stop  offset="1" style="stop-color:#45F7FF"/>
			</linearGradient>
			<path class="st8" d="M415.62,218.39c-0.01-0.17-0.01-0.33-0.02-0.5c-0.01-0.17-0.02-0.34-0.04-0.5
				c-0.02-0.17-0.03-0.34-0.06-0.51c-0.02-0.17-0.05-0.35-0.07-0.52c0,0,0-0.01,0-0.01c0,0,0-0.01,0-0.01
				c-0.03-0.17-0.06-0.33-0.09-0.5c-0.03-0.18-0.07-0.36-0.11-0.54c-0.04-0.18-0.08-0.36-0.13-0.54c-0.05-0.18-0.09-0.37-0.14-0.55
				c-0.04-0.14-0.08-0.28-0.12-0.43c0-0.01-0.01-0.02-0.01-0.03c-0.01-0.03-0.02-0.06-0.03-0.09c-0.05-0.18-0.11-0.36-0.17-0.54
				c-0.06-0.18-0.12-0.35-0.18-0.53c-0.06-0.17-0.12-0.34-0.19-0.51c-0.07-0.17-0.13-0.34-0.2-0.5c-0.05-0.13-0.11-0.26-0.16-0.38
				c0-0.01-0.01-0.02-0.01-0.02c-0.01-0.03-0.02-0.06-0.04-0.09c-0.07-0.17-0.15-0.33-0.23-0.5c-0.09-0.18-0.17-0.36-0.26-0.54
				c-0.1-0.21-0.21-0.41-0.32-0.62c-0.12-0.22-0.24-0.44-0.37-0.66c-0.02-0.04-0.04-0.08-0.06-0.12c-0.03-0.05-0.05-0.09-0.08-0.14
				c-0.24-0.41-0.5-0.82-0.77-1.22c-0.21-0.32-0.43-0.63-0.65-0.93c-0.15-0.2-0.3-0.41-0.46-0.6c-0.13-0.17-0.26-0.33-0.4-0.49
				c-0.13-0.16-0.26-0.31-0.4-0.47c-0.13-0.15-0.27-0.3-0.4-0.45c-0.03-0.03-0.05-0.06-0.08-0.09c-0.01-0.01-0.02-0.02-0.03-0.03
				c-0.1-0.11-0.21-0.22-0.31-0.33c-0.14-0.15-0.29-0.29-0.44-0.43c-0.15-0.14-0.3-0.29-0.46-0.42c-0.15-0.14-0.31-0.27-0.46-0.4
				c-0.08-0.07-0.16-0.13-0.23-0.19c-0.02-0.01-0.04-0.03-0.05-0.04c-0.06-0.05-0.12-0.1-0.17-0.14c-0.15-0.12-0.3-0.23-0.45-0.35
				c-0.15-0.11-0.3-0.22-0.45-0.32c-0.15-0.1-0.29-0.2-0.44-0.29c-0.15-0.09-0.29-0.18-0.44-0.27c-0.03-0.02-0.07-0.04-0.1-0.06
				l-6.86,3.99c0.71,0.41,1.39,0.89,2.06,1.43c0.02,0.01,0.03,0.03,0.05,0.04c0.66,0.54,1.29,1.13,1.9,1.77
				c0.01,0.01,0.02,0.02,0.03,0.03c1.22,1.3,2.32,2.79,3.24,4.39c0.02,0.04,0.04,0.08,0.06,0.12c0.45,0.78,0.86,1.59,1.21,2.4
				c0,0.01,0.01,0.02,0.01,0.03c0.36,0.84,0.68,1.69,0.94,2.54c0,0.01,0.01,0.02,0.01,0.03c0.26,0.85,0.46,1.71,0.59,2.56
				c0,0,0,0.01,0,0.01c0.14,0.85,0.21,1.69,0.2,2.51l-0.37,130.93c0,0.8-0.08,1.55-0.21,2.23c0,0.02-0.01,0.04-0.01,0.06
				c-0.14,0.67-0.33,1.28-0.58,1.82c-0.01,0.01-0.01,0.02-0.01,0.03c-0.21,0.46-0.49,0.84-0.78,1.2c-0.1,0.12-0.18,0.25-0.29,0.36
				c-0.34,0.36-0.71,0.69-1.13,0.93l6.86-3.99c0.42-0.24,0.79-0.57,1.13-0.93c0.1-0.11,0.19-0.23,0.29-0.35
				c0.12-0.16,0.26-0.29,0.37-0.46c0.14-0.22,0.27-0.46,0.39-0.71c0.01-0.01,0.01-0.02,0.01-0.03c0-0.01,0.01-0.02,0.01-0.03
				c0.08-0.17,0.15-0.34,0.22-0.52c0.07-0.18,0.13-0.36,0.18-0.54c0.05-0.17,0.1-0.35,0.14-0.53c0.02-0.07,0.03-0.15,0.05-0.23
				c0-0.02,0.01-0.04,0.01-0.06c0.01-0.07,0.03-0.14,0.04-0.22c0.03-0.16,0.05-0.33,0.07-0.49c0.02-0.16,0.04-0.33,0.05-0.5
				c0.01-0.16,0.02-0.32,0.03-0.49c0.01-0.16,0.01-0.33,0.01-0.5c0-0.01,0-0.02,0-0.03l0.37-130.93
				C415.63,218.7,415.63,218.54,415.62,218.39z"/>
			<g>
				<linearGradient id="SVGID_6_" gradientUnits="userSpaceOnUse" x1="196.0808" y1="227.0132" x2="408.7698" y2="227.0132">
					<stop  offset="0" style="stop-color:#FF7840"/>
					<stop  offset="0.1016" style="stop-color:#F87545"/>
					<stop  offset="0.25" style="stop-color:#E46E51"/>
					<stop  offset="0.4272" style="stop-color:#C46266"/>
					<stop  offset="0.6267" style="stop-color:#985183"/>
					<stop  offset="0.842" style="stop-color:#5F3CA8"/>
					<stop  offset="0.94" style="stop-color:#4331BA"/>
				</linearGradient>
				<path class="st9" d="M398.46,204.98c5.72,3.3,10.33,11.29,10.31,17.86l-0.37,130.93c-0.02,6.57-4.66,9.22-10.38,5.92
					L206.39,249.05c-5.72-3.3-10.33-11.29-10.31-17.86l0.37-130.93c0.02-6.57,4.66-9.22,10.38-5.92L398.46,204.98z"/>
			</g>
			<g>
				<path class="st10" d="M386.63,204.69c5.26,3.03,9.5,10.38,9.48,16.42l-0.34,120.36c-0.02,6.04-4.29,8.47-9.54,5.44
					l-167.13-96.43c-5.26-3.03-9.5-10.38-9.48-16.42l0.34-120.36c0.02-6.04,4.29-8.47,9.54-5.44L386.63,204.69z"/>
			</g>
			<path class="st10" d="M401.48,309.29L401.48,309.29c-0.77,0-1.4-0.63-1.4-1.4v-41.96c0-0.77,0.63-1.4,1.4-1.4l0,0
				c0.77,0,1.4,0.63,1.4,1.4v41.96C402.88,308.67,402.26,309.29,401.48,309.29z"/>
			<g>
				<path class="st5" d="M202.61,175c1.63,0.94,2.96,3.23,2.95,5.11c-0.01,1.88-1.34,2.64-2.97,1.69c-1.63-0.94-2.96-3.23-2.95-5.11
					C199.64,174.81,200.97,174.06,202.61,175z"/>
			</g>
		</g>
		<g>
			<linearGradient id="SVGID_7_" gradientUnits="userSpaceOnUse" x1="285.577" y1="191.1442" x2="318.8068" y2="191.1442">
				<stop  offset="0" style="stop-color:#5155D4"/>
				<stop  offset="1" style="stop-color:#4531BA"/>
			</linearGradient>
			<path class="st11" d="M317.52,192.77c0.52,1.73,0.9,3.47,1.1,5.17c0.12,1.02,0.19,2.03,0.18,3.02c0,0.3-0.01,0.59-0.02,0.88
				c0,0.04,0,0.09-0.01,0.13c-0.01,0.28-0.03,0.54-0.06,0.81c0,0.05-0.01,0.1-0.02,0.15c-0.03,0.27-0.06,0.53-0.1,0.78
				c-0.05,0.35-0.1,0.6-0.14,0.84c-0.06,0.31-0.12,0.56-0.18,0.79c-0.01,0.04-0.02,0.08-0.03,0.12c-0.06,0.23-0.13,0.46-0.2,0.68
				c-0.01,0.04-0.03,0.08-0.04,0.12c-0.07,0.22-0.15,0.44-0.23,0.65c-0.11,0.26-0.19,0.46-0.28,0.66c-0.13,0.27-0.23,0.46-0.33,0.65
				c-0.02,0.04-0.04,0.07-0.06,0.11c-0.1,0.18-0.21,0.36-0.32,0.53c-0.02,0.03-0.04,0.05-0.05,0.08c-0.12,0.18-0.24,0.35-0.37,0.52
				c-0.13,0.17-0.26,0.33-0.4,0.48c-0.02,0.02-0.04,0.04-0.06,0.07c-0.13,0.15-0.27,0.29-0.41,0.42c-0.03,0.03-0.05,0.05-0.08,0.08
				c-0.14,0.13-0.28,0.26-0.43,0.38c-0.02,0.02-0.05,0.04-0.07,0.05c-0.15,0.12-0.3,0.23-0.45,0.34c-0.19,0.13-0.36,0.23-0.52,0.33
				c-0.03,0.02-0.06,0.04-0.09,0.05c-0.16,0.09-0.33,0.18-0.5,0.26c-0.03,0.02-0.07,0.03-0.1,0.05c-0.17,0.08-0.35,0.15-0.53,0.22
				c-0.15,0.05-0.24,0.08-0.34,0.11c-0.06-6.38-4.54-14.1-10.08-17.3c-5.59-3.23-10.14-0.64-10.15,5.78
				c0.01,0.01,0.16,0.27,0.46,0.72c-0.13-0.18-0.26-0.37-0.39-0.55c-0.25-0.36-0.42-0.61-0.59-0.87c-0.03-0.05-0.06-0.09-0.09-0.14
				c-0.18-0.27-0.35-0.55-0.52-0.82c-0.04-0.06-0.07-0.12-0.11-0.18c-0.17-0.28-0.35-0.57-0.51-0.86c-0.18-0.31-0.34-0.6-0.5-0.89
				c-0.03-0.06-0.06-0.11-0.09-0.17c-0.15-0.29-0.31-0.58-0.45-0.87c-0.03-0.05-0.05-0.11-0.08-0.16c-0.14-0.28-0.28-0.56-0.41-0.84
				c-0.18-0.38-0.31-0.68-0.45-0.98c-0.03-0.06-0.05-0.12-0.08-0.19c-0.13-0.3-0.26-0.6-0.38-0.9c-0.16-0.39-0.27-0.68-0.37-0.96
				c-0.02-0.05-0.04-0.09-0.05-0.14c-0.11-0.3-0.22-0.61-0.32-0.91c-0.02-0.06-0.04-0.12-0.06-0.18c-0.21-0.62-0.39-1.24-0.56-1.86
				c-0.02-0.06-0.03-0.12-0.05-0.18c-0.08-0.3-0.15-0.6-0.23-0.9c-0.01-0.05-0.02-0.11-0.04-0.16c-0.07-0.29-0.13-0.57-0.18-0.86
				c-0.08-0.4-0.13-0.7-0.18-1.01c-0.01-0.06-0.02-0.13-0.03-0.19c-0.05-0.3-0.09-0.6-0.13-0.9c-0.04-0.38-0.07-0.66-0.1-0.94
				c0-0.05-0.01-0.1-0.01-0.15c-0.02-0.29-0.04-0.58-0.05-0.87c0-0.06,0-0.12-0.01-0.19c-0.01-0.3-0.02-0.59-0.02-0.89
				c0-0.99,0.07-1.92,0.2-2.8c0.21-1.46,0.6-2.76,1.13-3.88c0.11-0.22,0.22-0.44,0.34-0.65c2.7-4.85,8.41-5.97,15-2.17
				c5.92,3.42,11.1,9.97,14.03,17.03c0.19,0.46,0.38,0.93,0.55,1.4C317.08,191.38,317.31,192.08,317.52,192.77z M302.55,193.25
				c3.41,1.97,6.18,0.38,6.19-3.53c0.01-3.92-2.74-8.68-6.15-10.65c-3.4-1.97-6.18-0.39-6.19,3.53
				C296.39,186.51,299.15,191.28,302.55,193.25"/>
			<g>
				<g>
					<path class="st12" d="M343.55,245.22c1.28,0.74,2.31,2.53,2.31,3.99l-0.03,9.73c0,1.47-1.04,2.07-2.33,1.33l-88.96-51.36
						c-1.28-0.74-2.31-2.53-2.31-4l0.03-9.73c0-1.46,1.04-2.06,2.33-1.32L343.55,245.22z"/>
				</g>
				<g>
					<path class="st12" d="M343.49,266.39c1.28,0.74,2.31,2.53,2.31,4l-0.03,9.73c0,1.47-1.04,2.06-2.33,1.32l-88.96-51.36
						c-1.28-0.74-2.31-2.52-2.31-3.99l0.03-9.73c0-1.47,1.04-2.07,2.33-1.33L343.49,266.39z"/>
				</g>
			</g>
		</g>
		<linearGradient id="SVGID_8_" gradientUnits="userSpaceOnUse" x1="276.8213" y1="269.9478" x2="308.1198" y2="269.9478">
			<stop  offset="0" style="stop-color:#7F5EFF"/>
			<stop  offset="0.2001" style="stop-color:#7959F8"/>
			<stop  offset="0.4923" style="stop-color:#694DE4"/>
			<stop  offset="0.8395" style="stop-color:#4E38C5"/>
			<stop  offset="0.94" style="stop-color:#4531BA"/>
		</linearGradient>
		<path class="st13" d="M303.81,270.64c2.39,1.38,4.32,4.72,4.31,7.46l-0.01,1.76c-0.01,2.75-1.95,3.85-4.34,2.47l-22.64-13.07
			c-2.39-1.38-4.32-4.72-4.32-7.47l0.01-1.76c0.01-2.74,1.95-3.85,4.34-2.47L303.81,270.64z"/>
		<g>
			
				<linearGradient id="SVGID_9_" gradientUnits="userSpaceOnUse" x1="545.0684" y1="296.8372" x2="574.1465" y2="271.4921" gradientTransform="matrix(-1 0 0 1 779.0993 0)">
				<stop  offset="0" style="stop-color:#1AE5FF"/>
				<stop  offset="0.2589" style="stop-color:#64E8F9"/>
				<stop  offset="0.7043" style="stop-color:#EAEEEE"/>
			</linearGradient>
			<path class="st14" d="M221.72,269.39c0,0-7.68,4.42-8.86,24.66c0.98,3.73,6.88,5.7,11.4,2.75
				C228.78,293.85,224.1,272.83,221.72,269.39z"/>
			<path class="st15" d="M260.76,291.24c0,0,17.58-7.83,19.95-9.16c2.36-1.33,4.14-6.21,5.02-7.24c0.89-1.03,4.88-3.4,4.73-2.36
				c-0.15,1.03-2.22,2.95-2.22,2.95s1.48,2.51,1.77,4.14s-1.92,4.88-3.1,5.76c-1.18,0.89-3.99,1.18-3.99,1.18s-14.33,9.6-16.7,9.75
				C263.86,296.41,260.46,295.08,260.76,291.24z"/>
			
				<linearGradient id="SVGID_10_" gradientUnits="userSpaceOnUse" x1="109.9862" y1="391.5653" x2="181.0644" y2="391.5653" gradientTransform="matrix(1 0 0 1 94.1842 0)">
				<stop  offset="0" style="stop-color:#5155D4"/>
				<stop  offset="1" style="stop-color:#45F7FF"/>
			</linearGradient>
			<ellipse class="st16" cx="239.71" cy="391.57" rx="35.54" ry="21.12"/>
			<path class="st17" d="M224.97,387.02c0,0-0.46,3.35,0.15,4.72c0.61,1.22,3.04,2.13,4.72,0.91c1.67-1.22,4.57-4.26,4.57-4.26
				s4.87-2.59,5.33-3.96c0.46-1.37-1.22-2.59-2.59-2.28c-1.37,0.3-5.33,2.74-7.15,2.74S225.58,385.34,224.97,387.02z"/>
			<path class="st17" d="M219.96,315.73c0,0,4.26,70.31,4.79,72.34c0.53,2.04,6.06,3.21,7.08-0.03c0.65-2.05,2.25-67.12,2.25-67.12
				L219.96,315.73z"/>
			<path class="st17" d="M239.06,391.2c-0.24,0.21-0.37,0.5-0.37,0.82c-0.01,0.97,0.04,3.12,0.58,3.96c0.71,1.1,2.95,2.26,5.29,0.99
				c1.97-1.07,8.04-5.61,9.27-6.61c0.75-0.61,1.08-1.36,1.23-1.94c0.13-0.52-0.13-1.06-0.62-1.28c-0.86-0.38-2.33-0.86-3.65-0.42
				c-2.01,0.68-4.54,2.85-7.28,2.74C241.45,389.37,239.77,390.59,239.06,391.2z"/>
			<path class="st17" d="M248.46,316.49c-0.31-2.92-3.8-3.87-7.02-2.88c-6.15-0.33-15.66-0.07-15.99,4.7
				c-0.49,7.06,2.82,12.1,6.01,15.53c2.36,2.53,3.93,7.38,4.59,9.74c0.56,18.65,1.79,44.94,2.57,47.46
				c1.24,4.05,7.36,3.87,7.63-0.08C247.49,377.62,248.46,316.49,248.46,316.49z"/>
			
				<linearGradient id="SVGID_11_" gradientUnits="userSpaceOnUse" x1="548.5265" y1="363.564" x2="541.9773" y2="226.8191" gradientTransform="matrix(-1 0 0 1 779.0993 0)">
				<stop  offset="0" style="stop-color:#1AE5FF"/>
				<stop  offset="0.2589" style="stop-color:#64E8F9"/>
				<stop  offset="0.7043" style="stop-color:#EAEEEE"/>
			</linearGradient>
			<path class="st18" d="M248.48,318.7c-0.72,3.61-11,5.41-17.02,4.45c-6.01-0.96-12.49-3.91-12.27-10.88c0,0-0.91-27.86-0.91-33.34
				c0-5.48,3.45-9.54,3.45-9.54s3.37-3.85,13.95-1.68c0,0,8.62,1.88,12.59,8.25c0,0,2.74,7,1.83,21.61
				C249.18,312.19,248.48,318.7,248.48,318.7z"/>
			<path class="st19" d="M227.41,259.98c0,0,0.91,5.33,0,7.76c-0.15,1.22,5.18,5.33,9.89,4.26c2.74-0.61,2.59-1.98,2.59-1.98
				s-2.28-3.81-1.98-7.46C238.22,258.91,230.61,259.21,227.41,259.98z"/>
			<g>
				<path class="st15" d="M245.22,249.24c0,6.94-5.62,12.56-12.56,12.56c-6.94,0-12.56-5.62-12.56-12.56
					c0-6.94,5.62-12.56,12.56-12.56C239.6,236.69,245.22,242.31,245.22,249.24z"/>
				<path class="st15" d="M245.22,250.08c0,0,0.15,12.58-2.59,15.12c-2.74,2.54-6.95-2.38-13.67-3.95
					c-6.73-1.73,5.45-14.81,5.45-14.81L245.22,250.08z"/>
			</g>
			<g>
				
					<linearGradient id="SVGID_12_" gradientUnits="userSpaceOnUse" x1="527.9088" y1="361.1043" x2="521.3596" y2="224.3596" gradientTransform="matrix(-1 0 0 1 779.0993 0)">
					<stop  offset="0" style="stop-color:#1AE5FF"/>
					<stop  offset="0.2589" style="stop-color:#64E8F9"/>
					<stop  offset="0.7043" style="stop-color:#EAEEEE"/>
				</linearGradient>
				<path class="st20" d="M244.2,273.03c0,0,2.75-0.79,5.89,3.73c3.14,4.52,7.66,10.41,9.82,11.4c2.16,0.98,5.11-0.98,6.29-0.98
					c1.18,0,4.32,5.5,3.14,8.25c-1.18,2.75-8.84,4.13-10.81,4.13c-1.96,0-14.74-7.66-16.5-11.98
					C240.27,283.24,237.52,273.22,244.2,273.03z"/>
				
					<linearGradient id="SVGID_13_" gradientUnits="userSpaceOnUse" x1="512.8135" y1="311.7394" x2="509.4081" y2="285.8052" gradientTransform="matrix(-1 0 0 1 779.0993 0)">
					<stop  offset="0" style="stop-color:#1AE5FF"/>
					<stop  offset="0.2589" style="stop-color:#64E8F9"/>
					<stop  offset="0.7043" style="stop-color:#EAEEEE"/>
				</linearGradient>
				<path class="st21" d="M264.44,287.76c0,0,0.79-2.16,3.54-2.36c2.75-0.2,5.89,5.11,5.7,8.06c-0.2,2.95-4.52,4.52-5.5,3.73
					C267.19,296.41,269.16,294.44,264.44,287.76z"/>
			</g>
			<path class="st22" d="M240.18,238.64c0,0,4.52,0.98,5.89,7.86c-0.59,2.95-4.72,0.59-6.29,4.52c-1.57,3.93-2.55,5.11-2.55,5.11
				l-0.98-0.39c0,0,0-3.14-1.38-3.14c-1.38,0-1.77,3.73-0.98,5.3c0.79,1.57,2.55,2.36,2.55,2.36s-1.96,3.34-2.95,3.73
				c-0.98,0.39-4.52-0.39-5.89-0.98c-1.38-0.59-3.93-3.34-5.89-6.48c-1.96-3.14-3.73-8.64-2.55-12.38c1.18-3.73,3.93-4.72,3.93-4.72
				s1.57-2.16,4.32-3.14C230.16,235.3,235.26,234.91,240.18,238.64z"/>
			<path class="st23" d="M242.34,270.34l-3.27-1.83c0,0-8.38-0.79-11.4-2.75l-1.57,2.23c0,0,2.1,4.06,7.47,4.58
				c5.37,0.52,7.86-1.57,7.86-1.57L242.34,270.34z"/>
		</g>
		<g class="st24">
			<g>
				<path class="st3" d="M390.08,170.74l-0.01,3.68c-0.01,2.17-2.36,3.52-4.23,2.43l-17.36-10.07c-0.87-0.51-1.41-1.44-1.4-2.45
					l0.01-3.68c0.01-2.17,2.36-3.52,4.23-2.43l17.36,10.07C389.54,168.8,390.08,169.73,390.08,170.74z"/>
			</g>
			<g>
				<path class="st3" d="M445,220.74l-0.01,3.69c-0.01,2.17-2.35,3.52-4.23,2.43l-72.34-41.76c-0.87-0.51-1.41-1.44-1.41-2.45
					l0.01-3.69c0.01-2.17,2.35-3.52,4.23-2.43l72.34,41.76C444.47,218.8,445,219.73,445,220.74z"/>
			</g>
			<g class="st25">
				<path class="st3" d="M415.07,240.18l-0.01,3.69c-0.01,2.17-2.35,3.52-4.23,2.43l-42.51-24.55c-0.87-0.51-1.41-1.44-1.41-2.45
					l0.01-3.69c0.01-2.17,2.35-3.52,4.23-2.43l42.51,24.55C414.54,238.23,415.08,239.17,415.07,240.18z"/>
			</g>
			<g>
				<path class="st3" d="M433.73,232.59l-0.01,3.69c-0.01,2.17-2.35,3.52-4.23,2.43l-61.12-35.29c-0.87-0.51-1.41-1.44-1.41-2.45
					l0.01-3.69c0.01-2.17,2.35-3.52,4.23-2.43l61.12,35.29C433.2,230.65,433.73,231.58,433.73,232.59z"/>
			</g>
		</g>
		<g class="st24">
			<g>
				<path class="st3" d="M99.91,144.49l0.01,1.89c0,1.12,1.21,1.81,2.18,1.25l8.93-5.18c0.45-0.26,0.72-0.74,0.72-1.26l-0.01-1.89
					c0-1.12-1.21-1.81-2.18-1.25l-8.93,5.18C100.18,143.5,99.9,143.98,99.91,144.49z"/>
			</g>
			<g>
				<path class="st3" d="M71.65,170.22l0.01,1.9c0,1.11,1.21,1.81,2.18,1.25l37.22-21.49c0.45-0.26,0.73-0.74,0.73-1.26l-0.01-1.9
					c0-1.11-1.21-1.81-2.18-1.25l-37.22,21.49C71.92,169.22,71.65,169.7,71.65,170.22z"/>
			</g>
			<g class="st25">
				<path class="st3" d="M87.04,180.22l0.01,1.9c0,1.11,1.21,1.81,2.18,1.25l21.87-12.63c0.45-0.26,0.73-0.74,0.73-1.26l-0.01-1.9
					c0-1.11-1.21-1.81-2.18-1.25l-21.87,12.63C87.32,179.22,87.04,179.7,87.04,180.22z"/>
			</g>
			<g>
				<path class="st3" d="M77.45,176.32l0.01,1.9c0,1.11,1.21,1.81,2.18,1.25l31.45-18.16c0.45-0.26,0.73-0.74,0.73-1.26l-0.01-1.9
					c0-1.11-1.21-1.81-2.18-1.25l-31.45,18.16C77.72,175.32,77.44,175.8,77.45,176.32z"/>
			</g>
		</g>
		<g>
			<linearGradient id="SVGID_14_" gradientUnits="userSpaceOnUse" x1="219.4279" y1="211.1207" x2="249.4276" y2="211.1207">
				<stop  offset="0" style="stop-color:#FF7840"/>
				<stop  offset="1" style="stop-color:#4531BA"/>
			</linearGradient>
			<path class="st26" d="M249.43,211.12c0,8.28-6.72,15-15,15c-8.28,0-15-6.72-15-15c0-8.28,6.72-15,15-15
				C242.71,196.12,249.43,202.84,249.43,211.12z"/>
			<polygon class="st5" points="233.13,218.02 226.87,213.44 229.15,210.33 232.4,212.7 238.98,204.31 242.02,206.69 			"/>
		</g>
		<g class="st27">
			<path class="st3" d="M214.87,144.69c3.54,2.04,6.4,7,6.39,11.06c-0.01,4.09-2.89,5.73-6.43,3.69l-58.25-33.63
				c-3.54-2.04-6.4-7-6.39-11.09c0.01-4.06,2.89-5.71,6.43-3.66L214.87,144.69z"/>
		</g>
		<g class="st27">
			<path class="st3" d="M435.69,322.76c2.46,1.42,4.45,4.86,4.44,7.69c-0.01,2.84-2.01,3.98-4.47,2.56l-40.49-23.37
				c-2.46-1.42-4.45-4.86-4.44-7.71c0.01-2.82,2.01-3.97,4.47-2.55L435.69,322.76z"/>
		</g>
		<g>
			
				<linearGradient id="SVGID_15_" gradientUnits="userSpaceOnUse" x1="538.7119" y1="313.9858" x2="593.4022" y2="264.804" gradientTransform="matrix(1 0 0 1 -454.1494 0)">
				<stop  offset="0" style="stop-color:#92F3FF"/>
				<stop  offset="1" style="stop-color:#FFFFFF"/>
			</linearGradient>
			<path class="st28" d="M156.56,280.66c1.5,0.87,1.5,2.26,0.02,3.13l-49.75,28.91c-1.49,0.86-3.9,0.86-5.4,0l-30.68-17.71
				c-1.5-0.86-1.51-2.26-0.02-3.13l49.75-28.91c1.49-0.86,3.9-0.86,5.4,0L156.56,280.66z"/>
		</g>
		<g>
			<g class="st29">
				<linearGradient id="SVGID_16_" gradientUnits="userSpaceOnUse" x1="113.0519" y1="363.37" x2="186.0653" y2="363.37">
					<stop  offset="0" style="stop-color:#5155D4"/>
					<stop  offset="1" style="stop-color:#45F7FF"/>
				</linearGradient>
				<path class="st30" d="M123.83,348.42c-14.3,8.26-14.38,21.65-0.17,29.9c14.21,8.26,37.33,8.26,51.63,0
					c14.31-8.26,14.38-21.65,0.17-29.9C161.24,340.16,138.13,340.16,123.83,348.42z"/>
			</g>
			<g>
				<path class="st31" d="M141.21,367.25c0,0-6.58,1.72-9.15,1.72c-2.57,0,0,2.57,4.29,2.86c4.29,0.29,8.29,0.57,9.15-0.57
					c0.86-1.14-0.19-4.38-0.19-4.38L141.21,367.25z"/>
				<path class="st31" d="M159.51,361.25c0,0-6.58,1.72-9.15,1.72c-2.57,0,0,2.57,4.29,2.86c4.29,0.29,8.29,0.57,9.15-0.57
					c0.86-1.14-0.19-4.38-0.19-4.38L159.51,361.25z"/>
				<path class="st32" d="M160.94,290.25c0,0,2.38,65.38,2.76,72.24c0,0-1.91,1.52-4.19,0.76c0,0-7.72-42.89-8.86-53.94
					c-1.14-11.06-3.05-14.87-3.05-14.87L160.94,290.25z"/>
				<path class="st32" d="M136.54,294.06c0,0-2.29,37.74,4.57,74.34c0,0,2.29,1.14,4.19-1.52c0,0,4.19-64.04,5.34-73.19
					C151.79,284.53,139.59,292.15,136.54,294.06z"/>
				<path class="st32" d="M146.83,323.03c0,0,3.81-10.67,7.24-16.39c3.43-5.72,2.67-14.1,2.67-14.1l-12.96,1.14L146.83,323.03z"/>
				<path class="st15" d="M133.63,256.75l-11.33-5.49c0,0-3.43-3.43-4.29-4.12c-0.86-0.69-6.52-2.06-7.55-1.89
					c-1.03,0.17-2.92,1.72-2.4,2.06c0.51,0.34,5.32,2.92,5.49,3.95c0.17,1.03-1.72,2.4-1.03,3.09c0.69,0.69,2.23-0.69,3.26-0.69
					c1.03,0,3.95,1.37,3.95,1.37l10.99,6.35L133.63,256.75z"/>
				<g>
					<path class="st33" d="M157.79,245.74c0,0-2.1-2.29-5.53,2.1c-3.43,4.38-6.29,10.86-11.06,10.29
						c-4.77-0.57-12.58-4.38-12.58-4.38s-3.43,2.29-2.86,5.72c0,0,11.06,8.2,18.49,7.81c7.43-0.38,15.44-8.01,17.15-13.34
						C163.13,248.6,157.79,245.74,157.79,245.74z"/>
				</g>
				<path class="st33" d="M134.87,293.98c0.68,3.42,10.42,5.13,16.12,4.22c5.7-0.91,11.83-3.71,11.63-10.31
					c0,0,0.87-26.39,0.87-31.58c0-5.19-3.27-9.03-3.27-9.03s-3.19-3.65-13.21-1.59c0,0-8.17,1.78-11.93,7.82
					c0,0-2.6,6.63-1.73,20.48C134.21,287.81,134.87,293.98,134.87,293.98z"/>
				<path class="st19" d="M154.83,238.35c0,0-0.87,5.05,0,7.35c0.14,1.15-4.9,5.05-9.37,4.04c-2.6-0.58-2.45-1.87-2.45-1.87
					s2.16-3.6,1.87-7.07C144.59,237.34,151.8,237.63,154.83,238.35z"/>
				<g>
					<path class="st15" d="M137.96,228.18c0,6.57,5.33,11.9,11.9,11.9c6.57,0,11.9-5.33,11.9-11.9c0-6.57-5.33-11.9-11.9-11.9
						C143.29,216.29,137.96,221.61,137.96,228.18z"/>
					<path class="st15" d="M137.96,228.98c0,0-0.14,11.92,2.45,14.32c2.6,2.41,6.58-2.25,12.95-3.74
						c6.37-1.64-5.16-14.03-5.16-14.03L137.96,228.98z"/>
				</g>
				<g>
					<path class="st15" d="M123.24,267.97c0,0-16.66-7.42-18.9-8.68c-2.24-1.26-3.92-5.88-4.76-6.86c-0.84-0.98-4.62-3.22-4.48-2.24
						c0.14,0.98,2.1,2.8,2.1,2.8s-1.4,2.38-1.68,3.92c-0.28,1.54,1.82,4.62,2.94,5.46c1.12,0.84,3.78,1.12,3.78,1.12
						s13.58,9.1,15.82,9.24C120.3,272.87,123.52,271.61,123.24,267.97z"/>
					<path class="st33" d="M138.07,252.89c0,0-2.1-2.29-5.53,2.1c-3.43,4.38-6.29,10.86-11.06,10.29
						c-4.77-0.57-12.58-4.38-12.58-4.38s-3.43,2.29-2.86,5.72c0,0,11.06,8.2,18.49,7.81c7.43-0.38,15.44-8.01,17.15-13.34
						C143.4,255.75,138.07,252.89,138.07,252.89z"/>
				</g>
				<g>
					<path class="st22" d="M142.74,218.14c0,0-4.28,0.93-5.58,7.44c0.56,2.79,4.47,0.56,5.96,4.28c1.49,3.72,2.42,4.84,2.42,4.84
						l0.93-0.37c0,0,0-2.98,1.3-2.98s1.68,3.54,0.93,5.03c-0.74,1.49-2.42,2.23-2.42,2.23s1.86,3.16,2.79,3.54
						c0.93,0.37,4.28-0.37,5.58-0.93c1.3-0.56,3.72-3.16,5.58-6.14c1.86-2.98,3.54-8.19,2.42-11.73c-1.12-3.54-3.72-4.47-3.72-4.47
						s-1.49-2.05-4.09-2.98C152.23,214.98,147.39,214.61,142.74,218.14z"/>
					<path class="st22" d="M141.78,226.01c0,0,2.86,3.43,1.43,8.29c-1.43,4.86,0.57,4.86,2.57,11.15c2,6.29-3.72,13.72,1.72,22.87
						c5.43,9.15,20.01,8.01,26.59-1.14c6.58-9.15-3.72-15.72-4-24.02c-0.29-8.29,6.29-13.15-1.14-18.87
						c-7.43-5.72-10.58-12.01-19.73-9.43C140.07,217.43,137.78,222.01,141.78,226.01z"/>
				</g>
			</g>
		</g>
	</g>
</g>
<g id="DESIGNED_BY_FREEPIK">
</g>
</svg>
